<svg width="1909" height="867" viewBox="0 0 1909 867" fill="none" xmlns="http://www.w3.org/2000/svg">
<g opacity="0.5" clip-path="url(#clip0_692_1164)">
<path d="M1881.67 24.0405L1877.24 14.9861L1909.13 0.953125L1881.67 24.0405Z" fill="white"/>
<path d="M1908.59 1.21973L1881.56 24.0408L1885.16 17.8799L1908.59 1.21973Z" fill="white"/>
<path d="M1909.13 0.953125L1885.27 17.8797L1894.33 21.8989L1909.13 0.953125Z" fill="white"/>
<path d="M1877.24 14.9861L1868.75 12.2839L1909.13 0.953125L1877.24 14.9861Z" fill="white"/>
<path d="M1748 113.718C1757.62 113.689 1770.41 108.25 1772.97 97.8066C1774.01 93.5922 1773.09 89.0765 1769.76 86.0005C1765.55 82.1133 1760.92 85.6654 1762.06 91.0906C1763.93 100.003 1774.78 106.603 1783.04 106.696C1787.8 106.75 1792.28 104.457 1793.99 99.7717C1796.73 92.2946 1791.91 87.4915 1788.16 81.5616C1783.5 74.1892 1772.07 60.6978 1778.13 51.5791C1782.38 45.179 1792.84 45.5582 1799.07 48.1823C1806.41 51.2679 1812.3 57.7069 1815.61 64.8659C1820.54 75.505 1818.42 88.1162 1827.94 96.8123C1832.05 100.562 1836.98 100.654 1841.21 96.9789C1845.06 93.6348 1844.93 88.8059 1845.24 84.1448C1845.66 77.8519 1845.66 71.5062 1845.31 65.2104C1844.97 59.1698 1840.8 53.491 1834.37 53.0398C1832.7 52.9228 1830.83 53.7791 1830.36 55.3879C1829.99 56.601 1830.51 57.9395 1831.35 58.8847C1837.47 65.7668 1845.47 63.1065 1850.72 56.7242C1855.45 50.9793 1858.35 43.2506 1856.72 35.7931C1856.19 33.3901 1855.11 29.7656 1858.11 28.3941C1860.32 27.3868 1862.93 29.2701 1864.16 30.9775C1866.94 34.8151 1870.16 41.7068 1875.46 35.9765C1876.81 34.5207 1877.61 32.6499 1878.32 30.7952C1879.16 28.5994 1879.98 26.1345 1881.38 24.2305" stroke="white" stroke-width="2" stroke-miterlimit="10" stroke-dasharray="5 5"/>
</g>
<g clip-path="url(#clip1_692_1164)">
<g opacity="0.5">
<path d="M214.129 819.857C195.974 819.801 171.84 809.536 166.995 789.824C165.04 781.87 166.778 773.346 173.066 767.541C181.012 760.204 189.736 766.908 187.589 777.148C184.063 793.97 163.574 806.426 148.001 806.603C139 806.705 130.555 802.377 127.32 793.533C122.156 779.42 131.261 770.355 138.33 759.163C147.12 745.248 168.7 719.783 157.263 702.572C149.236 690.492 129.499 691.208 117.729 696.161C103.889 701.985 92.7593 714.138 86.5097 727.65C77.2219 747.731 81.2243 771.534 63.2481 787.947C55.4961 795.026 46.1931 795.198 38.2078 788.262C30.9414 781.95 31.1821 772.836 30.5935 764.038C29.7985 752.161 29.8004 740.184 30.4613 728.301C31.0954 716.899 38.9652 706.181 51.1102 705.329C54.2628 705.108 57.7833 706.724 58.6873 709.761C59.3686 712.051 58.4039 714.577 56.8171 716.361C45.2599 729.351 30.1566 724.33 20.2483 712.283C11.3297 701.44 5.84633 686.853 8.93127 672.777C9.92526 668.241 11.9578 661.4 6.29717 658.812C2.13986 656.91 -2.79204 660.465 -5.1214 663.688C-10.3562 670.931 -16.4431 683.939 -26.4497 673.123C-28.992 670.375 -30.5027 666.844 -31.8385 663.344C-33.4202 659.199 -34.9707 654.547 -37.6266 650.953" stroke="white" stroke-width="2" stroke-miterlimit="10" stroke-dasharray="5 5"/>
</g>
</g>
<defs>
<clipPath id="clip0_692_1164">
<rect width="161" height="123" fill="white" transform="translate(1748 0.953125)"/>
</clipPath>
<clipPath id="clip1_692_1164">
<rect width="214" height="234" fill="white" transform="translate(0 633)"/>
</clipPath>
</defs>
</svg>
